# AST/ASF file generated using VICON BodyLanguage
# -----------------------------------------------
:version 1.10
:name VICON
:units
  mass 1.0
  length 0.45
  angle deg
:documentation
   .ast/.asf automatically generated from VICON data using
   VICON BodyBuilder and BodyLanguage model FoxedUp or BRILLIANT.MOD
:root
   order TX TY TZ RX RY RZ
   axis XYZ
   position 0 0 0  
   orientation 0 0 0 
:bonedata
  begin
     id 1 
     name lhipjoint
     direction 0.610259 -0.730986 0.305356 
     length 2.50941 
     axis 0 0 0  XYZ
  end
  begin
     id 2 
     name lfemur
     direction 0.34202 -0.939693 0  
     length 7.48822  
     axis 0 0 20  XYZ
    dof rx ry rz
    limits (-160.0 20.0)
           (-70.0 70.0)
           (-60.0 70.0)
  end
  begin
     id 3 
     name ltibia
     direction 0.34202 -0.939693 0   
     length 7.60141   
     axis 0 0 20   XYZ
    dof rx
    limits (-10.0 170.0)
  end
  begin
     id 4 
     name lfoot
     direction 0.0673488 -0.185039 0.980421   
     length 2.04049   
     axis -90 7.62852e-016 20   XYZ
    dof rx rz
    limits (-45.0 90.0)
           (-70.0 20.0)
  end
  begin
     id 5 
     name ltoes
     direction 1.5356e-011 -4.21729e-011 1   
     length 1.02897   
     axis -90 7.62852e-016 20   XYZ
    dof rx
    limits (-90.0 20.0)
  end
  begin
     id 6 
     name rhipjoint
     direction -0.57612 -0.754205 0.315056   
     length 2.43216  
     axis 0 0 0  XYZ 
  end
  begin
     id 7 
     name rfemur
     direction -0.34202 -0.939693 0   
     length 7.42799   
     axis 0 0 -20   XYZ
    dof rx ry rz
    limits (-160.0 20.0)
           (-70.0 70.0)
           (-70.0 60.0)
  end
  begin
     id 8 
     name rtibia
     direction -0.34202 -0.939693 0   
     length 7.69484   
     axis 0 0 -20   XYZ
    dof rx
    limits (-10.0 170.0)
 end
 begin
     id 9 
     name rfoot
     direction -0.111837 -0.30727 0.945028   
     length 2.15769  
     axis -90 -7.62852e-016 -20   XYZ
    dof rx rz
    limits (-45.0 90.0)
           (-20.0 70.0)
  end
  begin
     id 10 
     name rtoes
     direction -1.53539e-011 -4.21878e-011 1   
     length 1.07391   
     axis -90 -7.62852e-016 -20   XYZ
    dof rx
    limits (-90.0 20.0)
  end
  begin
     id 11 
     name lowerback
     direction 0.00552624 0.990109 -0.140195   
     length 2.12403   
     axis 0 0 0   XYZ
    dof rx ry rz
    limits (-20.0 45.0)
           (-30.0 30.0)
           (-30.0 30.0)
  end
  begin
     id 12 
     name upperback
     direction 0.00361898 0.999976 -0.00584723   
     length 2.13232   
     axis 0 0 0   XYZ
    dof rx ry rz
    limits (-20.0 45.0)
           (-30.0 30.0)
           (-30.0 30.0)
  end
  begin
     id 13 
     name thorax
     direction -0.000331275 0.998253 0.0590847   
     length 2.17688   
     axis 0 0 0   XYZ
    dof rx ry rz
    limits (-20.0 45.0)
           (-30.0 30.0)
           (-30.0 30.0)
  end
  begin
     id 14 
     name lowerneck
     direction -0.0561561 0.979832 0.19177   
     length 1.64159   
     axis 0 0 0   XYZ
    dof rx ry rz
    limits (-20.0 45.0)
           (-30.0 30.0)
           (-30.0 30.0)
  end
  begin
     id 15 
     name upperneck
     direction 0.0827153 0.979385 -0.184293   
     length 1.68939   
     axis 0 0 0   XYZ
    dof rx ry rz
    limits (-20.0 45.0)
           (-30.0 30.0)
           (-30.0 30.0)
  end
  begin
     id 16
     name head
     direction 0.0278583 0.995936 -0.0856488  
     length 1.70207  
     axis 0 0 0   XYZ
    dof rx ry rz
    limits (-20.0 45.0)
           (-30.0 30.0)
           (-30.0 30.0)
  end
  begin
     id 17 
     name lclavicle
     direction 0.950993 0.301131 -0.0702275  
     length 3.41652  
     axis 0 0 0   XYZ
    dof ry rz
    limits (-20.0 10.0)
           (0.0 20.0)
  end
  begin
     id 18 
     name lhumerus
     direction 1 -4.48981e-011 -3.9662e-029   
     length 5.32955   
     axis 180 -30 -90   XYZ
    dof rx ry rz
    limits (-60.0 90.0)
           (-90.0 90.0)
           (-90.0 90.0)
  end
  begin
     id 19
     name lradius
     direction 1 -4.48925e-011 -9.0549e-027   
     length 3.69232   
     axis 180 -30 -90   XYZ
    dof rx
    limits (-10.0 170.0)
  end
  begin
     id 20
     name lwrist
     direction 1 -4.49007e-011 -1.49005e-026   
     length 1.84616   
     axis 9.0955e-015 90 90   XYZ
    dof ry
    limits (-180.0 0.0)
 end
  begin
     id 21 
     name lhand
     direction 1 -4.49016e-011 -2.98023e-026   
     length 0.536598   
     axis 1.90115e-014 90 90   XYZ
    dof rx rz
    limits (-90.0 90.0)
           (-45.0 45.0)
  end
  begin
     id 22 
     name lfingers
     direction 1 -4.48924e-011 -5.9578e-026   
     length 0.432619   
     axis 3.80223e-014 90 90   XYZ
    dof rx
    limits (0.0 90.0)
  end
  begin
     id 23
     name lthumb
     direction 0.707107 -6.34947e-011 0.707107   
     length 0.621157   
     axis -90 45 -3.84942e-014   XYZ
    dof rx rz
    limits (-45.0 45.0)
           (-45.0 45.0)
  end
  begin
     id 24 
     name rclavicle
     direction -0.955495 0.276497 -0.102848   
     length 3.36357  
     axis 0 0 0   XYZ 
    dof ry rz
    limits (-10.0 20.0)
           (-20.0 0.0)
  end
  begin
     id 25 
     name rhumerus
     direction -1 -4.48961e-011 3.30983e-027  
     length 5.23431   
     axis 180 30 90   XYZ
    dof rx ry rz
    limits (-90.0 60.0)
           (-90.0 90.0)
           (-90.0 90.0)
  end
  begin
     id 26 
     name rradius
     direction -1 -4.48965e-011 -6.63263e-027   
     length 3.55301   
     axis 180 30 90   XYZ
    dof rx
    limits (-10.0 170.0)
  end
  begin
     id 27 
     name rwrist
     direction -1 -4.48942e-011 -1.48958e-026   
     length 1.77651   
     axis 9.0955e-015 -90 -90   XYZ
    dof ry
    limits (-180.0 0.0)
  end
  begin
     id 28
     name rhand
     direction -1 -4.48977e-011 -2.97966e-026   
     length 0.772522   
     axis 1.90115e-014 -90 -90   XYZ
    dof rx rz
    limits (-90.0 90.0)
           (-45.0 45.0)
  end
  begin
     id 29
     name rfingers
     direction -1 -4.49135e-011 -5.96389e-026   
     length 0.622827   
     axis 3.80223e-014 -90 -90   XYZ
    dof rx
    limits (0.0 90.0)
  end
  begin
     id 30
     name rthumb
     direction -0.707107 -6.34969e-011 0.707107   
     length 0.894259   
     axis -90 -45 3.84942e-014   XYZ
    dof rx rz
    limits (-45.0 45.0)
           (-45.0 45.0)
  end
:hierarchy
  begin
    root lhipjoint rhipjoint lowerback
    lhipjoint lfemur
    lfemur ltibia
    ltibia lfoot
    lfoot ltoes
    rhipjoint rfemur
    rfemur rtibia
    rtibia rfoot
    rfoot rtoes
    lowerback upperback
    upperback thorax
    thorax lowerneck lclavicle rclavicle
    lowerneck upperneck
    upperneck head
    lclavicle lhumerus
    lhumerus lradius
    lradius lwrist
    lwrist lhand lthumb
    lhand lfingers
    rclavicle rhumerus
    rhumerus rradius
    rradius rwrist
    rwrist rhand rthumb
    rhand rfingers
  end

#!OML:ASF F:\VICON\USERDATA\INSTALL\rory3\rory3.ASF
:FULLY-SPECIFIED
:DEGREES
311
root 0.0711753 17.8482 12.3264 -14.2388 -65.8817 17.7615
lowerback 9.21612 0.175 -7.22346
upperback 0.412474 -0.581407 -0.607445
thorax -4.68578 -0.149426 3.50672
lowerneck -16.8713 -5.42547 -10.871
upperneck 30.1016 -7.78822 8.3198
head 13.8134 -3.73933 3.81736
rclavicle -2.65874e-014 4.77083e-015
rhumerus -35.4202 -10.5893 -81.2284
rradius 31.4926
rwrist 6.10812
rhand -14.2655 11.0253
rfingers 7.12502
rthumb 11.873 -18.618
lclavicle -2.65874e-014 4.77083e-015
lhumerus -30.0481 1.30028 78.7794
lradius 34.2611
lwrist -3.80805
lhand -19.6282 24.4804
lfingers 7.12502
lthumb 6.69874 54.3544
rfemur -28.8654 -6.42893 19.1429
rtibia 22.1477
rfoot -8.78364 -9.96
rtoes -4.19204
lfemur 10.9777 3.16105 -29.7896
ltibia 4.83914
lfoot -6.29729 -2.05297
ltoes -12.558
312
root -0.0315295 17.8406 12.3748 -14.9479 -66.1665 18.5767
lowerback 9.21448 0.244316 -7.32235
upperback 0.385852 -0.511564 -0.782003
thorax -4.72209 -0.113613 3.36996
lowerneck -16.8031 -5.46557 -10.7086
upperneck 30.0897 -7.87798 8.22649
head 13.7916 -3.77424 3.73523
rclavicle -1.60519e-014 7.15625e-015
rhumerus -35.4731 -10.4227 -81.6138
rradius 31.565
rwrist 5.50053
rhand -14.3682 10.7391
rfingers 7.12502
rthumb 11.7741 -18.91
lclavicle -1.60519e-014 7.15625e-015
lhumerus -29.9258 0.915489 78.6731
lradius 34.2913
lwrist -3.7772
lhand -19.4992 24.5234
lfingers 7.12502
lthumb 6.82325 54.3934
rfemur -29.0757 -7.5516 19.6101
rtibia 22.2808
rfoot -9.04423 -9.08174
rtoes -7.75846
lfemur 11.6153 3.27863 -30.029
ltibia 4.20516
lfoot -5.82782 -2.20176
ltoes -12.6846
313
root -0.138946 17.8323 12.426 -15.9623 -66.5499 19.6335
lowerback 9.22192 0.383764 -7.4872
upperback 0.388895 -0.355569 -0.952932
thorax -4.74138 -0.0355371 3.2627
lowerneck -16.7244 -5.54856 -10.8291
upperneck 30.0739 -8.04643 8.4354
head 13.8062 -3.838 3.81142
rclavicle 1.43622e-014 -1.23246e-014
rhumerus -35.5377 -10.7986 -81.5664
rradius 31.4135
rwrist 6.31538
rhand -14.5144 10.9538
rfingers 7.12502
rthumb 11.633 -18.7032
lclavicle 1.43622e-014 -1.23246e-014
lhumerus -29.8002 0.354746 78.6758
lradius 34.2862
lwrist -3.52989
lhand -19.7168 24.605
lfingers 7.12502
lthumb 6.61317 54.4817
rfemur -29.2416 -8.87813 20.0947
rtibia 22.629
rfoot -8.65236 -7.99298
rtoes -11.3125
lfemur 12.668 3.5319 -30.3293
ltibia 3.00921
lfoot -5.17821 -2.50901
ltoes -13.6217
314
root -0.249456 17.8238 12.4777 -16.8414 -67.0473 20.5054
lowerback 9.1798 0.51576 -7.56717
upperback 0.401086 -0.189404 -1.02861
thorax -4.72376 0.0457273 3.20615
lowerneck -16.6651 -5.59557 -11.0343
upperneck 30.1054 -8.11171 8.57005
head 13.8335 -3.87625 3.89173
rclavicle -1.51573e-014 -2.8625e-014
rhumerus -35.5662 -11.0983 -81.3806
rradius 31.1775
rwrist 7.30753
rhand -14.3589 11.1927
rfingers 7.12502
rthumb 11.7831 -18.4558
lclavicle -1.51573e-014 -2.8625e-014
lhumerus -29.8277 0.279959 78.6971
lradius 34.3801
lwrist -3.65032
lhand -20.5742 24.0801
lfingers 7.12502
lthumb 5.78547 53.9811
rfemur -29.3093 -9.42925 20.456
rtibia 23.1247
rfoot -7.62933 -7.02964
rtoes -9.71034
lfemur 14.6808 3.88246 -30.5324
ltibia -2.22639e-014
lfoot -3.7632 -2.85399
ltoes -16.6412
315
root -0.356992 17.8171 12.5269 -17.0536 -67.4049 20.7106
lowerback 9.18347 0.502483 -7.50175
upperback 0.37099 -0.198792 -0.981956
thorax -4.75634 0.0425063 3.21968
lowerneck -16.6167 -5.55256 -11.0812
upperneck 30.1388 -7.99377 8.42107
head 13.8168 -3.85218 3.86161
rclavicle -5.31749e-015 1.55052e-014
rhumerus -35.7116 -9.81992 -81.8618
rradius 31.5071
rwrist 6.03873
rhand -14.3051 10.515
rfingers 7.12502
rthumb 11.835 -19.1306
lclavicle -5.31749e-015 1.55052e-014
lhumerus -29.8998 0.513744 78.6746
lradius 34.4192
lwrist -3.85005
lhand -22.0398 23.0757
lfingers 7.12502
lthumb 4.37035 53.0106
rfemur -29.3516 -9.47223 20.8708
rtibia 23.6914
rfoot -5.86201 -6.23366
rtoes -3.46023
lfemur 15.0833 4.01771 -30.5097
ltibia 2.54444e-014
lfoot -3.74464 -2.93806
ltoes -20.9994
316
root -0.467327 17.8105 12.5789 -17.2818 -67.6269 20.8318
lowerback 9.31343 0.447747 -7.36291
upperback 0.373443 -0.269935 -0.999763
thorax -4.81926 0.00613712 3.13301
lowerneck -16.6326 -5.51253 -10.9523
upperneck 30.1405 -7.90165 8.20804
head 13.7914 -3.82445 3.76839
rclavicle 2.62893e-014 3.97569e-016
rhumerus -35.8969 -8.29045 -82.5903
rradius 32.0184
rwrist 4.36657
rhand -14.4334 9.75998
rfingers 7.12502
rthumb 11.7112 -19.8927
lclavicle 2.62893e-014 3.97569e-016
lhumerus -29.9536 0.482207 78.6394
lradius 34.4573
lwrist -3.62722
lhand -22.9965 22.9642
lfingers 7.12502
lthumb 3.44645 52.9161
rfemur -29.2499 -10.0752 21.4025
rtibia 24.1889
rfoot -4.15279 -5.3944
rtoes 2.14384
lfemur 15.6053 4.02998 -30.4707
ltibia -2.54444e-014
lfoot -3.58403 -3.09402
ltoes -23.8802
